<?xml version="1.0" encoding="UTF-8"?>
<svg id="Layer_2" data-name="Layer 2" xmlns="http://www.w3.org/2000/svg" viewBox="0 0 199.68 200.85">
  <defs>
    <style>
      .cls-1 {
        fill: none;
      }

      .cls-1, .cls-2 {
        stroke-width: 0px;
      }

      .cls-2 {
        fill: #70c7ba;
      }
    </style>
  </defs>
  <g id="Layer_1-2" data-name="Layer 1">
    <g>
      <g>
        <g>
          <path class="cls-2" d="M99.15,108.75c-4.95,0-10.27-1.12-15.38-3.24-3.99-1.65-6.87-4.72-9.67-7.69-.71-.76-1.42-1.51-2.15-2.24-.55-.55-1.11-1.09-1.67-1.63-3.07-2.99-6.25-6.07-8-10.29-2.08-5.01-2.36-10.53-2.36-15.27,0-.99-.02-2-.05-3-.1-4.3-.2-8.75,1.43-12.67,1.86-4.47,5.51-8.09,8.74-11.28l1.08-1.07c3.64-3.64,7.6-7.36,12.52-9.4,4.83-2,10.3-2.17,15.5-2.17s10.54.98,15.2,2.91c5.36,2.22,9.77,5.04,13.11,8.38,3.82,3.82,6.86,8.3,8.79,12.94,1.58,3.81,3.68,9.54,3.68,15.37,0,5.33-2.09,10.37-3.94,14.81l-.16.38c-2.01,4.85-4.98,9.31-8.58,12.91-3.84,3.84-8.28,6.87-12.83,8.76-5.67,2.35-10.67,3.5-15.27,3.5ZM99.15,32.43c-4.83,0-9.9.15-14.11,1.89-4.3,1.78-7.96,5.23-11.34,8.61l-1.09,1.08c-3.13,3.1-6.36,6.3-7.94,10.09-1.33,3.22-1.25,7.09-1.15,11.19.02,1.03.05,2.07.05,3.09,0,4.38.25,9.46,2.08,13.88,1.46,3.53,4.24,6.22,7.18,9.08.57.56,1.14,1.11,1.7,1.67.75.75,1.49,1.53,2.23,2.32,2.65,2.81,5.14,5.47,8.41,6.82,4.67,1.94,9.51,2.96,13.99,2.96,4.11,0,8.65-1.05,13.88-3.22,4.12-1.71,8.15-4.46,11.65-7.97,3.27-3.27,5.96-7.32,7.79-11.73l.16-.38c1.71-4.13,3.66-8.82,3.66-13.42,0-5.18-1.94-10.45-3.4-13.97-1.74-4.21-4.51-8.27-8-11.76-3-3-7.01-5.55-11.93-7.59-4.21-1.75-8.85-2.63-13.8-2.63Z"/>
          <path class="cls-2" d="M109.86,46.6l3.22,21.79-3.22,21.79-8.1-1.2,2.31-15.67-16.95,13.06-4.99-6.52,14.87-11.45-14.87-11.45,4.99-6.52,16.96,13.06-2.31-15.67,8.1-1.2M112.31,43.3l-2.88.43-8.1,1.2-2.87.43.42,2.87,1.26,8.56-11.26-8.67-2.31-1.78-1.77,2.31-4.99,6.52-1.76,2.3,2.29,1.77,11.88,9.15-11.88,9.15-2.29,1.77,1.76,2.3,4.99,6.52,1.77,2.31,2.31-1.78,11.26-8.67-1.26,8.56-.42,2.87,2.87.43,8.1,1.2,2.88.43.42-2.88,3.22-21.79.06-.42-.06-.42-3.22-21.79-.42-2.88h0Z"/>
        </g>
        <path class="cls-2" d="M75.11,144.75c-1.08.16-2.09.41-2.88.82-.31.16-.59.35-.82.56-.46.43-.73.97-.73,1.65,0,.45.11.83.3,1.16.58.99,1.94,1.46,3.49,1.46.64,0,1.3-.07,1.95-.24.66-.17,1.31-.43,1.95-.82v-4.85c-.63.02-1.29.05-1.95.11-.44.04-.88.09-1.32.15Z"/>
        <path class="cls-2" d="M132.06,137.35c-.31-.33-.65-.63-1.03-.89-.57-.38-1.21-.68-1.92-.88s-1.48-.3-2.29-.3c-1,0-2.23.06-3.18.22v13.83c.45.17.92.29,1.44.38s1.07.13,1.69.13c1.38,0,2.76-.22,3.95-.85.4-.21.77-.46,1.12-.77.31-.28.59-.61.83-.98.12-.19.24-.39.34-.6.21-.42.39-.89.52-1.41.2-.78.31-1.66.31-2.64,0-1.12-.17-2.11-.47-2.98-.31-.87-.75-1.62-1.31-2.27ZM129.41,145.52c-.46.39-1.18.62-2.14.68v-7.26c.9.07,1.63.36,2.08.84.58.69.86,1.61.86,2.82,0,1.98-.59,2.73-.8,2.93Z"/>
        <path class="cls-2" d="M156.62,144.75c-1.08.16-2.09.41-2.88.82-.31.16-.59.35-.82.56-.46.43-.73.97-.73,1.65,0,.45.11.83.3,1.16.58.99,1.94,1.46,3.49,1.46.64,0,1.3-.07,1.95-.24.66-.17,1.31-.43,1.95-.82v-4.85c-.63.02-1.29.05-1.95.11-.44.04-.88.09-1.32.15Z"/>
        <path class="cls-2" d="M167.72,129.75c-2.45-2.7-6.17-4.11-10.79-4.11s-8.94,1.22-12.31,3.35l-.04.03-.04.03c-1.81,1.21-2.47,3.12-1.82,5.1-.7-1.27-1.56-2.43-2.61-3.45-3.24-3.24-8.24-5.05-14.02-5.05-2.29,0-6.62.13-9.92,1.02h-.05s-.05.03-.05.03c-1.34.4-2.37,1.28-2.93,2.41-.37-.43-.83-.8-1.36-1.08-2.95-1.62-6.24-2.38-10.36-2.38s-7.34.95-9.78,2.81c-1.56,1.19-2.69,2.75-3.36,4.54-.5-1.18-1.18-2.26-2.06-3.24-2.45-2.7-6.17-4.11-10.79-4.11s-8.94,1.22-12.31,3.35l-.04.03-.04.03c-1.97,1.31-2.59,3.46-1.63,5.61l1.64,3.55c.28.62.67,1.14,1.13,1.56-2.91,2.17-3.88,4.9-4.09,7.22l-10.9-10.66,15.45-15.11c1.38-1.38,1.8-3.24,1.12-4.89-.66-1.59-2.25-2.62-4.05-2.62h-8.08c-1.17,0-2.86.34-4.34,1.94l-5.18,5.06v-2.54c0-2.46-2-4.46-4.46-4.46h-6.31c-2.49,0-4.52,2-4.52,4.46v36.31c0,2.47,2.03,4.47,4.52,4.47h6.31c2.46,0,4.46-2.01,4.46-4.47v-2.54l5.18,5.06c1.49,1.61,3.18,1.95,4.34,1.95h8.08c1.32,0,2.51-.56,3.32-1.48,1.99,1.31,4.44,2.03,7.06,2.03,2.31,0,4.2-.3,5.98-.99.59.28,1.25.43,1.94.43h4.91c1.7,0,3.16-.97,3.92-2.37.16.12.32.24.51.35,3.11,1.78,6.5,2.58,10.97,2.58,5.56,0,9.99-2.17,12.34-5.67v13.7c0,2.54,1.96,4.53,4.47,4.53h5.69c2.46,0,4.47-2.03,4.47-4.53v-8.03c.09,0,.18,0,.27,0,5.42,0,10.27-1.97,13.31-5.4.53-.6.98-1.25,1.4-1.93.63,1.72,1.66,3.23,3.06,4.4,2.16,1.89,5.09,2.93,8.27,2.93,2.31,0,4.2-.3,5.98-.99.59.28,1.25.43,1.94.43h4.91c2.46,0,4.47-2,4.47-4.47v-15.51c0-3.88-1-6.81-3.15-9.22ZM62.09,155.23s-.02,0-.04.02c-.1.04-.22.07-.36.07h-8.08c-.67,0-1.23-.28-1.73-.84l-11.42-11.17v11.17h0c0,.45-.33.84-.83.84h-6.31c-.5,0-.89-.39-.89-.84h0v-36.31c0-.44.39-.83.89-.83h6.31c.5,0,.83.39.83.83v11.17l11.42-11.17c.5-.56,1.06-.83,1.73-.83h8.08c.73,0,1.01.66.39,1.28l-18.1,17.71,17.16,16.78s0,0,0,0l.94.92c.49.49.41,1,0,1.2ZM85.74,138.97v15.51c0,.45-.39.84-.84.84h-4.91c-.5,0-.89-.39-.89-.84v-.45h-.22c-2.29,1.45-4.24,1.84-6.8,1.84-2.29,0-4.41-.73-5.91-2.06-1.04-.85-1.8-2.04-2.2-3.47,0-.02,0-.04-.01-.06-.06-.21-.11-.43-.15-.66-.02-.08-.02-.16-.04-.25-.03-.17-.05-.35-.07-.53-.03-.27-.04-.56-.04-.85,0,0,0,0,0,0h0c0-1.23.27-2.28.76-3.17.81-1.48,2.2-2.53,3.87-3.3,2.68-1.17,6.09-1.66,8.92-1.91.4-.04.8-.07,1.17-.1v-.56c0-.32-.01-.62-.04-.9-.09-.84-.32-1.5-.74-2-.15-.2-.34-.36-.56-.5-.65-.42-1.55-.61-2.51-.61s-1.94.13-2.86.36c-.31.07-.61.16-.9.25-.59.18-1.16.4-1.69.64-.54.24-1.05.5-1.52.76-.11.06-.21.11-.3.15-.02,0-.03.01-.05.02-.09.03-.17.05-.25.05,0,0-.02,0-.02,0-.01,0-.02,0-.04,0-.03,0-.07,0-.1-.02-.02,0-.04-.01-.06-.02-.03-.01-.06-.03-.09-.05-.02-.01-.04-.02-.06-.04-.03-.03-.06-.06-.09-.1-.01-.02-.03-.03-.04-.05-.04-.06-.08-.13-.12-.21l-1.62-3.51c-.06-.13-.09-.24-.11-.34-.04-.2,0-.37.15-.53.07-.08.17-.16.3-.25,2.57-1.62,6.36-2.79,10.37-2.79,2.57,0,5.91.5,8.09,2.9.35.39.66.81.94,1.27.27.46.51.96.7,1.51.19.55.34,1.15.44,1.82s.15,1.4.15,2.21h0ZM110.84,147.67c0,1.76-.57,3.35-1.63,4.65-.18.22-.37.43-.57.63-.61.6-1.33,1.13-2.16,1.56-1.66.86-3.75,1.36-6.18,1.36-4.63,0-7.25-1-9.2-2.12-.25-.14-.4-.31-.47-.49-.03-.09-.04-.18-.03-.28.01-.1.05-.19.1-.29l2.06-4.29c.07-.13.15-.23.25-.3.03-.02.06-.04.09-.05.07-.04.15-.07.24-.07.02,0,.04-.02.06-.02.01,0,.03.01.04.01.12,0,.25.03.38.1,2.23,1.28,3.9,2.06,6.3,2.06.92,0,1.66-.17,2.17-.5.51-.33.79-.84.79-1.51,0-.61-.25-1.03-.68-1.37-.43-.34-1.02-.61-1.72-.91-1.21-.54-2.61-1.02-3.99-1.61-.46-.19-.92-.4-1.36-.62-1.71-.84-2.89-1.98-3.54-3.51-.39-.92-.59-1.97-.59-3.19h0c0-1.76.51-3.27,1.49-4.48.33-.4.71-.77,1.14-1.1,1.73-1.32,4.28-2.06,7.57-2.06,4.07,0,6.64.84,8.64,1.95.14.07.24.15.32.24.07.09.12.18.14.28.02.1.02.2,0,.3-.02.1-.06.2-.12.3l-2.01,4.13s0,0,0,0c-.05.1-.11.17-.17.23-.01.01-.03.03-.04.04-.06.05-.13.09-.2.11-.01,0-.03,0-.04,0-.03,0-.07.02-.11.02-.03,0-.06-.01-.1-.01-.03,0-.05,0-.08-.01-.09-.02-.18-.05-.28-.1-2.23-1.23-4.13-1.62-5.74-1.62-1.13,0-2.04.28-2.42.96-.13.23-.2.5-.2.82,0,.42.16.76.44,1.05.18.19.41.36.68.51.39.23.86.43,1.34.61.45.18.88.35,1.31.51,1.29.49,2.54.94,3.87,1.61,1.88.91,3.05,2.14,3.65,3.6.24.59.4,1.21.47,1.86.04.33.06.66.06,1h0ZM138.13,151.69c-.33.37-.68.71-1.05,1.03-.74.63-1.56,1.16-2.43,1.59-.44.22-.88.41-1.34.58-.92.34-1.87.58-2.85.74-.97.16-1.96.24-2.93.24-1.45,0-2.68-.11-3.9-.45v12.1c0,.5-.39.89-.84.89h-5.69c-.5,0-.84-.39-.84-.89v-36.36c0-.25.07-.46.21-.63.14-.17.35-.29.63-.38.57-.15,1.21-.29,1.91-.4.69-.11,1.43-.2,2.21-.28.77-.07,1.58-.13,2.4-.16.82-.04,1.65-.05,2.47-.05,4.68,0,8.81,1.34,11.49,4.02,2.23,2.18,3.57,5.3,3.57,9.31s-1.17,6.97-3.01,9.09ZM167.25,138.97v15.51c0,.45-.39.84-.84.84h-4.91c-.5,0-.89-.39-.89-.84v-.45h-.22c-2.29,1.45-4.24,1.84-6.8,1.84-2.29,0-4.41-.73-5.91-2.06-.39-.32-.74-.69-1.05-1.09-.31-.41-.57-.86-.79-1.35-.43-.98-.67-2.11-.67-3.36h0c0-1.23.27-2.28.76-3.17.81-1.48,2.2-2.53,3.87-3.3,2.68-1.17,6.09-1.66,8.92-1.91.4-.04.8-.07,1.17-.1v-.56c0-.32-.01-.62-.04-.9-.09-.84-.32-1.5-.74-2-.15-.2-.34-.36-.56-.5-.65-.42-1.55-.61-2.51-.61s-1.94.13-2.86.36c-.31.07-.61.16-.9.25-.59.18-1.16.4-1.69.64-.54.24-1.05.5-1.52.76-.11.06-.21.11-.3.15-.02,0-.03.01-.05.02-.09.03-.17.05-.25.05,0,0-.02,0-.02,0-.01,0-.02,0-.04,0-.03,0-.07,0-.1-.02-.02,0-.04-.01-.06-.02-.03-.01-.06-.03-.09-.05-.02-.01-.04-.02-.06-.04-.03-.03-.06-.06-.09-.1-.01-.02-.03-.03-.04-.05-.04-.06-.08-.13-.12-.21l-1.62-3.51c-.06-.13-.09-.24-.11-.34-.04-.2,0-.37.15-.53.07-.08.17-.16.3-.25,2.57-1.62,6.36-2.79,10.37-2.79,2.57,0,5.91.5,8.09,2.9.35.39.66.81.94,1.27.27.46.51.96.7,1.51.19.55.34,1.15.44,1.82s.15,1.4.15,2.21h0Z"/>
      </g>
      <rect class="cls-1" x="-.58" y=".58" width="200.85" height="199.68" transform="translate(200.26 .58) rotate(90)"/>
    </g>
  </g>
</svg>